# Blender v2.79 (sub 0) OBJ File: 'box.blend'
# www.blender.org
mtllib box.mtl
o Cube
v 1.000000 -1.000000 -1.506855
v 1.000000 -1.000000 0.493145
v -1.000000 -1.000000 0.493145
v -1.000000 -1.000000 -1.506855
v 1.000000 1.000000 -1.506854
v 0.999999 1.000000 0.493146
v -1.000000 1.000000 0.493145
v -1.000000 1.000000 -1.506855
v 1.000000 0.000000 -1.506855
v 1.000000 0.000000 0.493145
v -1.000000 0.000000 0.493145
v -1.000000 0.000000 -1.506855
v 1.000000 -1.000000 -0.515027
v -1.000000 -1.000000 -0.515028
v 1.000000 1.000000 -0.515027
v -1.000000 1.000000 -0.515028
v -1.000000 0.000000 -0.515028
v 1.000000 0.000000 -0.515027
v 1.000000 0.500000 -1.506855
v 1.000000 0.500000 0.493146
v -1.000000 0.500000 0.493145
v -1.000000 0.500000 -1.506855
v -1.000000 0.500000 -0.515028
v 1.000000 0.500000 -0.515027
v 1.000000 -0.500000 -1.506855
v 1.000000 -0.500000 0.493145
v -1.000000 -0.500000 0.493145
v -1.000000 -0.500000 -1.506855
v 1.000000 -0.500000 -0.515027
v -1.000000 -0.500000 -0.515028
v -1.000000 -1.000000 -1.010942
v -1.000000 1.000000 -1.010941
v -1.000000 0.000000 -1.010941
v 1.000000 -1.000000 -1.010941
v 1.000000 1.000000 -1.010941
v 1.000000 0.000000 -1.010941
v 1.000000 0.500000 -1.010941
v -1.000000 0.500000 -1.010941
v 1.000000 -0.500000 -1.010941
v -1.000000 -0.500000 -1.010941
v 1.000000 -1.000000 -0.010941
v 1.000000 1.000000 -0.010941
v 1.000000 0.000000 -0.010941
v -1.000000 -1.000000 -0.010941
v -1.000000 1.000000 -0.010941
v -1.000000 0.000000 -0.010941
v -1.000000 0.500000 -0.010941
v 1.000000 0.500000 -0.010941
v -1.000000 -0.500000 -0.010941
v 1.000000 -0.500000 -0.010941
v 1.000000 0.750000 -1.506854
v 0.999999 0.750000 0.493146
v -1.000000 0.750000 0.493145
v -1.000000 0.750000 -1.506855
v -1.000000 0.750000 -0.515028
v 1.000000 0.750000 -0.515027
v 1.000000 0.750000 -1.010941
v -1.000000 0.750000 -1.010941
v -1.000000 0.750000 -0.010941
v 1.000000 0.750000 -0.010941
v -1.000000 -1.000000 -1.262441
v -1.000000 1.000000 -1.262440
v -1.000000 0.000000 -1.262440
v -1.000000 0.500000 -1.262440
v -1.000000 -0.500000 -1.262440
v 1.000000 -1.000000 -1.262440
v 1.000000 1.000000 -1.262440
v 1.000000 0.000000 -1.262440
v 1.000000 0.500000 -1.262440
v 1.000000 -0.500000 -1.262440
v 1.000000 0.750000 -1.262440
v -1.000000 0.750000 -1.262440
v 1.000000 -0.750000 -0.515027
v -1.000000 -0.750000 -0.515028
v 1.000000 -0.750000 -1.506855
v 1.000000 -0.750000 0.493145
v -1.000000 -0.750000 0.493145
v -1.000000 -0.750000 -1.506855
v -1.000000 -0.750000 -1.010942
v 1.000000 -0.750000 -1.010941
v 1.000000 -0.750000 -0.010941
v -1.000000 -0.750000 -0.010941
v 1.000000 -0.750000 -1.262440
v -1.000000 -0.750000 -1.262441
v 1.000000 -0.250000 -1.506855
v 1.000000 -0.250000 0.493145
v -1.000000 -0.250000 0.493145
v -1.000000 -0.250000 -1.506855
v 1.000000 -0.250000 -0.515027
v -1.000000 -0.250000 -0.515028
v 1.000000 -0.250000 -1.010941
v -1.000000 -0.250000 -1.010941
v -1.000000 -0.250000 -0.010941
v 1.000000 -0.250000 -0.010941
v 1.000000 -0.250000 -1.262440
v -1.000000 -0.250000 -1.262440
v -1.000000 0.250000 -0.515028
v 1.000000 0.250000 -0.515027
v 1.000000 0.250000 -1.506855
v 1.000000 0.250000 0.493145
v -1.000000 0.250000 0.493145
v -1.000000 0.250000 -1.506855
v -1.000000 0.250000 -1.010941
v 1.000000 0.250000 -1.010941
v 1.000000 0.250000 -0.010941
v -1.000000 0.250000 -0.010941
v 1.000000 0.250000 -1.262440
v -1.000000 0.250000 -1.262440
v 0.999999 0.750000 0.593722
v 0.999999 1.000000 0.593722
v -1.000000 0.750000 0.593721
v -1.000000 1.000000 0.593721
v 1.120273 0.750000 -1.506854
v 1.120273 1.000000 -1.506854
v 1.002038 0.750000 0.594629
v 1.002038 1.000000 0.594629
v 1.120273 1.000000 -0.010941
v 1.120273 1.000000 -1.010941
v 1.120273 1.000000 -0.515027
v 1.120273 1.000000 -1.262440
v 1.120273 0.750000 -0.515027
v 1.120273 0.750000 -1.010941
v 1.120273 0.750000 -0.010941
v 1.120273 0.750000 -1.262440
v 0.999999 1.000000 0.493146
v 0.999999 0.750000 0.493146
v 1.000000 0.750000 -1.607001
v 1.000000 1.000000 -1.607001
v -1.000000 0.750000 -1.607002
v -1.000000 1.000000 -1.607002
v 1.120273 0.750000 -1.496538
v 1.120273 1.000000 -1.496538
v -1.119642 0.750000 0.493145
v -1.119642 1.000000 0.493145
v -1.119642 0.750000 -1.506855
v -1.119642 1.000000 -1.506855
v -1.119642 1.000000 -1.262440
v -1.119642 1.000000 -0.010941
v -1.119642 1.000000 -0.515028
v -1.119642 1.000000 -1.010941
v -1.119642 0.750000 -0.515028
v -1.119642 0.750000 -1.010941
v -1.119642 0.750000 -0.010941
v -1.119642 0.750000 -1.262440
v -0.997492 0.750000 0.593721
v -0.997492 1.000000 0.593721
v -0.999535 0.750000 -1.607002
v -0.999535 1.000000 -1.607002
v 1.152679 -1.000000 -0.010941
v 1.000576 -1.000000 0.606815
v 1.152679 -1.000000 -1.010941
v 1.152679 -1.000000 -0.515027
v 1.152679 -0.750000 -0.515027
v 1.152679 -1.000000 -1.262440
v 1.152679 -0.750000 -1.010941
v 1.152679 -0.750000 -0.010941
v 1.152679 -1.000000 -1.506855
v 1.152679 -0.750000 -1.262440
v 1.152679 -0.750000 -1.506855
v 1.000576 -0.750000 0.606815
v 1.000000 -1.000000 0.603248
v -1.000000 -1.000000 0.603248
v 1.000000 -0.750000 0.603248
v -1.000000 -0.750000 0.603248
v 1.000000 -1.000000 -1.634089
v -1.000000 -1.000000 -1.634090
v 0.995953 -1.000000 -1.634089
v 1.000000 -0.750000 -1.634089
v -1.000000 -0.750000 -1.634090
v 0.995953 -0.750000 -1.634089
v -1.148256 -1.000000 -1.262441
v -1.148256 -1.000000 -1.506855
v -1.148256 -1.000000 -0.010941
v -1.148256 -1.000000 -0.515028
v -1.148256 -0.750000 -0.515028
v -1.148256 -1.000000 -1.010942
v -1.148256 -0.750000 -1.010942
v -1.148256 -1.000000 0.493145
v -1.148256 -0.750000 -0.010941
v -1.148256 -0.750000 -1.262441
v -1.148256 -0.750000 0.493145
v -1.148256 -0.750000 -1.506855
v -1.148256 -1.000000 0.495755
v -1.148256 -0.750000 0.495755
v -1.148256 -1.000000 -1.502919
v -1.148256 -0.750000 -1.502919
v 1.040325 0.899467 0.141299
v 1.040325 0.902210 -0.194555
v 1.040325 -0.994683 -0.747421
v 1.040325 -0.767565 -0.994852
v 0.964239 0.899467 0.141299
v 0.964239 0.902210 -0.194555
v 0.964239 -0.935620 -0.747421
v 0.964239 -0.708502 -0.994852
v 0.512907 -0.967236 -1.304013
v -0.675374 0.811165 -1.304013
v 0.512907 -0.967236 -1.536842
v -0.675374 0.811165 -1.536842
v 0.783931 -0.840254 -1.304013
v -0.404350 0.938146 -1.304013
v 0.783931 -0.840254 -1.536842
v -0.404350 0.938146 -1.536842
v 0.218084 -1.002833 0.524818
v -0.475184 0.766309 0.524818
v 0.218084 -1.002833 0.364888
v -0.475184 0.766309 0.364888
v 0.462928 -0.906887 0.524818
v -0.230341 0.862255 0.524818
v 0.462928 -0.906887 0.364888
v -0.230341 0.862255 0.364888
v -1.006741 -1.002833 -0.234259
v -1.006805 0.766309 -0.927527
v -0.846810 -1.002833 -0.234274
v -0.846875 0.766309 -0.927542
v -1.006718 -0.906887 0.010585
v -1.006782 0.862255 -0.682683
v -0.846788 -0.906887 0.010570
v -0.846852 0.862255 -0.682698
v 0.876887 0.947518 0.563472
v 0.876887 -0.974213 0.563472
v 0.876887 0.947518 0.437009
v 0.876887 -0.974213 0.437009
v 1.003350 0.947518 0.563472
v 1.003350 -0.974213 0.563472
v 1.003350 0.947518 0.437009
v 1.003350 -0.974213 0.437009
v 0.876887 0.947518 -1.480014
v 0.876887 -0.974213 -1.480014
v 0.876887 0.947518 -1.606477
v 0.876887 -0.974213 -1.606477
v 1.003350 0.947518 -1.480014
v 1.003350 -0.974213 -1.480014
v 1.003350 0.947518 -1.606477
v 1.003350 -0.974213 -1.606477
v -1.047204 0.947518 -1.480014
v -1.047204 -0.974213 -1.480014
v -1.047204 0.947518 -1.606477
v -1.047204 -0.974213 -1.606477
v -0.920741 0.947518 -1.480014
v -0.920741 -0.974213 -1.480014
v -0.920741 0.947518 -1.606477
v -0.920741 -0.974213 -1.606477
v -1.047204 0.947518 0.552075
v -1.047204 -0.974213 0.552075
v -1.047204 0.947518 0.425612
v -1.047204 -0.974213 0.425612
v -0.920741 0.947518 0.552075
v -0.920741 -0.974213 0.552075
v -0.920741 0.947518 0.425612
v -0.920741 -0.974213 0.425612
vt 0.750000 0.000000
vt 1.000000 0.000000
vt 1.000000 1.000000
vt 0.750000 1.000000
vt 0.000000 0.750000
vt 1.000000 0.750000
vt 1.000000 1.000000
vt 0.000000 1.000000
vt 0.000000 0.125000
vt 0.000000 0.250000
vt 0.000000 0.250000
vt 0.000000 0.125000
vt 0.125000 1.000000
vt 0.125000 1.000000
vt 0.125000 1.000000
vt 0.125000 1.000000
vt 1.000000 1.000000
vt 1.000000 1.000000
vt 1.000000 1.000000
vt 0.000000 0.000000
vt 0.000000 0.000000
vt 0.000000 0.000000
vt 0.000000 0.000000
vt 0.375000 0.000000
vt 0.500000 0.000000
vt 0.500000 1.000000
vt 0.375000 1.000000
vt 0.375000 0.875000
vt 0.500000 0.875000
vt 0.375000 1.000000
vt 0.375000 0.000000
vt 0.500000 0.000000
vt 0.500000 1.000000
vt 0.375000 1.000000
vt 0.486493 0.414152
vt 0.485433 0.443128
vt 0.427301 0.429038
vt 0.429884 0.399224
vt 0.599712 0.444008
vt 0.601696 0.471309
vt 0.543564 0.457218
vt 0.543103 0.429080
vt 0.375000 0.250000
vt 0.500000 0.250000
vt 0.500000 0.500000
vt 0.375000 0.500000
vt 0.875000 1.000000
vt 0.875000 0.875000
vt 0.875000 0.875000
vt 0.875000 1.000000
vt 0.544950 0.541634
vt 0.607649 0.553213
vt 0.607649 0.553213
vt 0.544950 0.541634
vt 1.000000 0.250000
vt 1.000000 0.500000
vt 0.000000 0.500000
vt 0.250000 0.000000
vt 0.500000 0.000000
vt 0.500000 1.000000
vt 0.250000 1.000000
vt 0.603680 0.498610
vt 0.605665 0.525911
vt 0.544488 0.513496
vt 0.544026 0.485357
vt 0.625000 0.250000
vt 0.750000 0.250000
vt 0.750000 0.500000
vt 0.625000 0.500000
vt 0.125000 0.000000
vt 0.250000 0.000000
vt 0.250000 1.000000
vt 0.625000 0.875000
vt 0.750000 0.875000
vt 0.750000 1.000000
vt 0.625000 1.000000
vt 0.625000 0.000000
vt 0.750000 0.000000
vt 0.750000 1.000000
vt 0.625000 1.000000
vt 0.484372 0.472104
vt 0.483312 0.501080
vt 0.422136 0.488665
vt 0.424718 0.458851
vt 0.125000 0.250000
vt 0.250000 0.250000
vt 0.250000 0.500000
vt 0.125000 0.500000
vt 0.595744 0.389405
vt 0.597728 0.416707
vt 0.542641 0.400941
vt 0.542179 0.372802
vt 0.488614 0.356200
vt 0.487554 0.385176
vt 0.432466 0.369410
vt 0.435049 0.339597
vt 0.125000 0.000000
vt 0.250000 0.000000
vt 0.250000 1.000000
vt 0.125000 1.000000
vt 0.125000 0.875000
vt 0.250000 0.875000
vt 0.250000 1.000000
vt 0.125000 1.000000
vt 0.625000 0.000000
vt 0.750000 0.000000
vt 0.750000 1.000000
vt 0.625000 1.000000
vt 0.250000 0.750000
vt 0.125000 0.750000
vt 0.622526 0.397707
vt 0.625271 0.424589
vt 0.750000 0.750000
vt 0.625000 0.750000
vt 0.633507 0.505237
vt 0.636253 0.532119
vt 0.125000 0.000000
vt 0.125000 1.000000
vt 1.000000 0.125000
vt 0.125000 0.000000
vt 0.628017 0.451472
vt 0.630762 0.478354
vt 0.500000 0.750000
vt 0.375000 0.750000
vt 0.875000 1.000000
vt 0.875000 1.000000
vt 0.875000 1.000000
vt 0.875000 1.000000
vt 0.125000 0.000000
vt 0.250000 0.000000
vt 0.625000 0.000000
vt 0.750000 0.000000
vt 0.875000 0.750000
vt 0.875000 0.750000
vt 0.375000 0.000000
vt 0.500000 0.000000
vt 0.000000 0.500000
vt 0.482251 0.530056
vt 0.875000 0.000000
vt 0.875000 0.250000
vt 0.875000 0.500000
vt 0.638998 0.559002
vt 0.670347 0.564791
vt 0.670347 0.564791
vt 0.670347 0.564791
vt 0.670347 0.564791
vt 0.875000 0.000000
vt 0.419553 0.518478
vt 0.666841 0.538327
vt 0.656321 0.458936
vt 0.659828 0.485399
vt 0.000000 1.000000
vt 0.000000 0.750000
vt 0.000000 0.000000
vt 1.000000 0.000000
vt 0.000000 1.000000
vt 0.663334 0.511863
vt 0.649309 0.406008
vt 0.652815 0.432472
vt 0.875000 0.250000
vt 0.875000 0.500000
vt 0.125000 0.875000
vt 0.125000 0.750000
vt 0.250000 0.000000
vt 0.500000 0.000000
vt 0.125000 1.000000
vt 0.125000 1.000000
vt 0.125000 1.000000
vt 0.595744 0.389405
vt 0.622526 0.397707
vt 0.649309 0.406008
vt 0.645802 0.379544
vt 0.645802 0.379544
vt 0.649309 0.406008
vt 0.125000 1.000000
vt 1.000000 1.000000
vt 1.000000 1.000000
vt 1.000000 1.000000
vt 1.000000 0.000000
vt 0.488614 0.356200
vt 0.542179 0.372802
vt 0.125000 0.000000
vt 0.125000 0.500000
vt 0.875000 0.000000
vt 0.875000 1.000000
vt 0.875000 0.000000
vt 1.000000 0.000000
vt 0.416970 0.548292
vt 0.416970 0.548292
vt 0.419553 0.518478
vt 0.000000 1.000000
vt 0.482251 0.530056
vt 0.481191 0.559032
vt 0.416970 0.548292
vt 0.419553 0.518478
vt 0.609633 0.580514
vt 0.545412 0.569773
vt 0.638998 0.559002
vt 0.641743 0.585884
vt 0.673854 0.591254
vt 0.000000 0.000000
vt 0.416970 0.548292
vt 0.419553 0.518478
vt 0.000000 0.000000
vt 0.000000 0.000000
vt 0.125000 0.000000
vt 0.000000 1.000000
vt 0.673854 0.591254
vt 1.000000 0.000000
vt 1.000000 0.500000
vt 1.000000 0.750000
vt 1.000000 0.000000
vt 0.875000 0.000000
vt 0.875000 0.000000
vt 1.000000 0.000000
vt 1.000000 0.875000
vt 1.000000 1.000000
vt 1.000000 0.250000
vt 1.000000 0.750000
vt 1.000000 1.000000
vt 0.875000 1.000000
vt 1.000000 0.000000
vt 1.000000 0.125000
vt 0.000000 1.000000
vt 1.000000 0.250000
vt 1.000000 0.000000
vt 0.619781 0.370824
vt 0.541717 0.344664
vt 0.489674 0.327224
vt 0.593759 0.362104
vt 0.435049 0.339597
vt 0.437632 0.309783
vt 0.750000 0.000000
vt 1.000000 0.000000
vt 0.000000 0.000000
vt 0.000000 0.000000
vt 0.125000 0.000000
vt 0.000000 0.000000
vt 0.125000 0.000000
vt 0.000000 1.000000
vt 0.875000 1.000000
vt 0.875000 1.000000
vt 0.875000 1.000000
vt 0.875000 0.000000
vt 1.000000 0.000000
vt 1.000000 1.000000
vt 0.875000 0.000000
vt 1.000000 0.000000
vt 0.000000 1.000000
vt 0.649309 0.406008
vt 1.000000 1.000000
vt 0.000000 0.750000
vt 0.000000 0.875000
vt 0.000000 0.000000
vt 0.125000 0.000000
vt 0.125000 0.250000
vt 0.000000 0.250000
vt 0.000000 0.500000
vt 0.000000 1.000000
vt 0.000000 0.000000
vt 0.125000 0.000000
vt 0.125000 1.000000
vt 0.000000 1.000000
vt 0.500000 1.000000
vt 0.250000 1.000000
vt 0.125000 1.000000
vt 0.750000 1.000000
vt 0.000000 1.000000
vt 0.000000 0.000000
vt 1.000000 0.000000
vt 1.000000 1.000000
vt 0.000000 1.000000
vt 0.000000 0.000000
vt 0.000000 0.000000
vt 0.000000 0.000000
vt 0.000000 0.000000
vt 0.000000 0.000000
vt 0.000000 0.000000
vt 0.000000 0.000000
vt 0.000000 0.000000
vt 0.000000 0.000000
vt 0.000000 0.000000
vt 0.000000 0.000000
vt 0.000000 0.000000
vt 0.000000 0.000000
vt 0.000000 0.000000
vt 0.000000 0.000000
vt 0.000000 0.000000
vt 0.000000 0.000000
vt 0.000000 0.000000
vt 0.000000 0.000000
vt 0.000000 0.000000
vt 0.000000 0.000000
vt 0.000000 0.000000
vt 0.000000 0.000000
vt 0.000000 0.000000
vt 0.000000 0.000000
vt 0.000000 0.000000
vt 0.000000 0.000000
vt 0.000000 0.000000
vt 0.000000 0.000000
vt 0.000000 0.000000
vt 0.000000 0.000000
vt 0.000000 0.000000
vt 0.000000 0.000000
vt 0.000000 0.000000
vt 0.000000 0.000000
vt 0.000000 0.000000
vt 0.000000 0.000000
vt 0.000000 0.000000
vt 0.000000 0.000000
vt 0.000000 0.000000
vt 0.000000 0.000000
vt 0.000000 0.000000
vt 0.000000 0.000000
vt 0.000000 0.000000
vt 0.000000 0.000000
vt 0.000000 0.000000
vt 0.000000 0.000000
vt 0.000000 0.000000
vt 0.000000 0.000000
vt 0.000000 0.000000
vt 0.000000 0.000000
vt 0.000000 0.000000
vt 0.000000 0.000000
vt 0.000000 0.000000
vt 0.000000 0.000000
vt 0.000000 0.000000
vt 0.000000 0.000000
vt 0.000000 0.000000
vt 0.000000 0.000000
vt 0.000000 0.000000
vt 0.000000 0.000000
vt 0.000000 0.000000
vt 0.000000 0.000000
vn 0.0000 -1.0000 0.0000
vn 0.0000 1.0000 -0.0000
vn 0.0000 0.0000 -1.0000
vn -1.0000 0.0000 -0.0000
vn -0.0000 -0.0000 1.0000
vn 1.0000 0.0000 0.0000
vn 0.6303 0.0000 -0.7764
vn 0.9815 0.0000 0.1916
vn -0.9998 -0.0000 0.0201
vn 0.6764 0.0000 -0.7365
vn -0.6356 0.0000 0.7720
vn -0.6404 -0.0000 -0.7680
vn 0.9710 0.0000 0.2391
vn -1.0000 -0.0000 0.0051
vn -0.6626 0.0000 -0.7489
vn -0.5870 -0.0000 0.8096
vn 0.4964 0.6395 0.5870
vn 0.0000 -1.0000 -0.0082
vn 0.1647 0.4244 -0.8904
vn -0.1678 -0.4323 0.8860
vn -0.8315 -0.5556 0.0000
vn 0.8315 0.5556 0.0000
vn 0.4243 -0.9055 0.0000
vn -0.4243 0.9055 0.0000
vn -0.9311 -0.3649 0.0000
vn 0.9311 0.3649 0.0000
vn 0.3649 -0.9311 0.0000
vn -0.3649 0.9311 0.0000
vn -0.0001 -0.3649 -0.9311
vn 1.0000 0.0000 -0.0001
vn 0.0001 0.3649 0.9311
vn -1.0000 -0.0000 0.0001
vn 0.0000 -0.9311 0.3649
vn -0.0000 0.9311 -0.3649
usemtl Material
s off
f 41/1/1 2/2/1 3/3/1 44/4/1
f 42/5/2 45/6/2 7/7/2 6/8/2
f 67/9/2 35/10/2 118/11/2 120/12/2
f 129/13/1 54/14/1 135/15/1 147/16/1
f 112/17/2 7/7/2 134/18/2 146/19/2
f 157/20/1 1/21/1 165/22/1 167/23/1
f 99/24/3 9/25/3 12/26/3 102/27/3
f 96/28/4 63/29/4 12/26/4 88/30/4
f 86/31/5 10/32/5 11/33/5 87/34/5
f 94/35/6 43/36/6 10/37/6 86/38/6
f 91/39/6 36/40/6 18/41/6 89/42/6
f 93/43/4 46/44/4 17/45/4 90/46/4
f 54/47/1 72/48/1 144/49/1 135/50/1
f 56/51/1 57/52/1 122/53/1 121/54/1
f 35/10/2 32/55/2 16/56/2 15/57/2
f 34/58/1 13/59/1 14/60/1 31/61/1
f 104/62/6 37/63/6 24/64/6 98/65/6
f 106/66/4 47/67/4 23/68/4 97/69/4
f 51/70/3 19/71/3 22/72/3 54/14/3
f 108/73/4 64/74/4 22/75/4 102/76/4
f 100/77/5 20/78/5 21/79/5 101/80/5
f 105/81/6 48/82/6 20/83/6 100/84/6
f 82/85/4 49/86/4 30/87/4 74/88/4
f 80/89/6 39/90/6 29/91/6 73/92/6
f 81/93/6 50/94/6 26/95/6 76/96/6
f 76/97/5 26/98/5 27/99/5 77/100/5
f 84/101/4 65/102/4 28/103/4 78/104/4
f 85/105/3 25/106/3 28/107/3 88/108/3
f 74/88/4 30/87/4 40/109/4 79/110/4
f 83/111/6 70/112/6 39/90/6 80/89/6
f 97/69/4 23/68/4 38/113/4 103/114/4
f 107/115/6 69/116/6 37/63/6 104/62/6
f 66/117/1 34/58/1 31/61/1 61/118/1
f 67/9/2 62/119/2 32/55/2 35/10/2
f 51/70/1 54/14/1 129/13/1 127/120/1
f 95/121/6 68/122/6 36/40/6 91/39/6
f 90/46/4 17/45/4 33/123/4 92/124/4
f 53/125/1 111/126/1 145/127/1 133/128/1
f 73/92/6 29/91/6 50/94/6 81/93/6
f 77/129/4 27/130/4 49/86/4 82/85/4
f 98/65/6 24/64/6 48/82/6 105/81/6
f 101/131/4 21/132/4 47/67/4 106/66/4
f 72/48/1 58/133/1 142/134/1 144/49/1
f 87/135/4 11/136/4 46/44/4 93/43/4
f 89/42/6 18/41/6 43/36/6 94/35/6
f 35/10/2 15/57/2 119/137/2 118/11/2
f 15/57/2 16/56/2 45/6/2 42/5/2
f 13/59/1 41/1/1 44/4/1 14/60/1
f 24/64/6 56/51/6 60/138/6 48/82/6
f 21/132/4 53/139/4 59/140/4 47/67/4
f 23/68/4 55/141/4 58/133/4 38/113/4
f 69/116/6 71/142/6 57/52/6 37/63/6
f 113/143/1 51/144/1 127/145/1 131/146/1
f 37/63/6 57/52/6 56/51/6 24/64/6
f 47/67/4 59/140/4 55/141/4 23/68/4
f 64/74/4 72/48/4 54/47/4 22/75/4
f 20/78/5 52/147/5 53/125/5 21/79/5
f 48/82/6 60/138/6 52/148/6 20/83/6
f 38/113/4 58/133/4 72/48/4 64/74/4
f 19/149/6 51/144/6 71/142/6 69/116/6
f 85/150/6 9/151/6 68/122/6 95/121/6
f 42/5/2 6/8/2 116/152/2 117/153/2
f 5/154/2 8/155/2 62/119/2 67/9/2
f 1/21/1 66/117/1 61/118/1 4/156/1
f 99/157/6 19/149/6 69/116/6 107/115/6
f 75/158/6 25/159/6 70/112/6 83/111/6
f 79/110/4 40/109/4 65/102/4 84/101/4
f 103/114/4 38/113/4 64/74/4 108/73/4
f 92/124/4 33/123/4 63/29/4 96/28/4
f 55/141/1 59/140/1 143/160/1 141/161/1
f 79/110/2 84/101/2 180/162/2 177/163/2
f 13/59/1 34/58/1 151/164/1 152/165/1
f 164/166/2 77/100/2 181/167/2 184/168/2
f 83/111/2 80/89/2 155/169/2 158/170/2
f 159/171/7 157/172/7 167/173/7 170/174/7
f 84/101/2 78/104/2 182/175/2 180/162/2
f 3/3/1 162/176/1 183/177/1 178/178/1
f 3/3/1 2/2/1 161/179/1 162/176/1
f 73/92/2 81/93/2 156/180/2 153/181/2
f 66/117/1 1/21/1 157/20/1 154/182/1
f 74/88/2 79/110/2 177/163/2 175/183/2
f 25/106/3 75/184/3 78/185/3 28/107/3
f 40/109/4 92/124/4 96/28/4 65/102/4
f 25/159/6 85/150/6 95/121/6 70/112/6
f 29/91/6 89/42/6 94/35/6 50/94/6
f 27/130/4 87/135/4 93/43/4 49/86/4
f 30/87/4 90/46/4 92/124/4 40/109/4
f 70/112/6 95/121/6 91/39/6 39/90/6
f 9/25/3 85/105/3 88/108/3 12/26/3
f 49/86/4 93/43/4 90/46/4 30/87/4
f 39/90/6 91/39/6 89/42/6 29/91/6
f 50/94/6 94/35/6 86/38/6 26/95/6
f 26/98/5 86/31/5 87/34/5 27/99/5
f 65/102/4 96/28/4 88/30/4 28/103/4
f 33/123/4 103/114/4 108/73/4 63/29/4
f 9/151/6 99/157/6 107/115/6 68/122/6
f 11/136/4 101/131/4 106/66/4 46/44/4
f 18/41/6 98/65/6 105/81/6 43/36/6
f 68/122/6 107/115/6 104/62/6 36/40/6
f 17/45/4 97/69/4 103/114/4 33/123/4
f 43/36/6 105/81/6 100/84/6 10/37/6
f 10/32/5 100/77/5 101/80/5 11/33/5
f 63/29/4 108/73/4 102/76/4 12/26/4
f 46/44/4 106/66/4 97/69/4 17/45/4
f 36/40/6 104/62/6 98/65/6 18/41/6
f 19/71/3 99/24/3 102/27/3 22/72/3
f 109/186/5 110/187/5 112/17/5 111/126/5
f 52/148/6 6/188/6 110/189/6 109/190/6
f 53/125/1 52/147/1 109/186/1 111/126/1
f 6/8/2 7/7/2 112/17/2 110/191/2
f 123/192/8 117/193/8 116/194/8 115/195/8
f 122/53/6 118/196/6 119/197/6 121/54/6
f 124/198/6 120/199/6 118/196/6 122/53/6
f 121/54/6 119/197/6 117/193/6 123/192/6
f 113/143/6 114/200/6 120/199/6 124/198/6
f 15/57/2 42/5/2 117/153/2 119/137/2
f 52/148/1 60/138/1 123/192/1 115/195/1
f 5/154/2 67/9/2 120/12/2 114/201/2
f 71/142/1 51/144/1 113/143/1 124/198/1
f 57/52/1 71/142/1 124/198/1 122/53/1
f 60/138/1 56/51/1 121/54/1 123/192/1
f 6/188/9 52/148/9 115/195/9 116/194/9
f 52/148/5 6/188/5 125/202/5 126/203/5
f 127/120/10 128/204/10 132/205/10 131/206/10
f 128/204/3 127/120/3 129/13/3 130/207/3
f 114/200/4 113/143/4 131/146/4 132/208/4
f 8/155/2 5/154/2 128/204/2 130/209/2
f 45/6/2 16/56/2 139/210/2 138/211/2
f 5/154/2 114/201/2 132/205/2 128/204/2
f 134/212/11 133/213/11 145/214/11 146/215/11
f 144/49/4 137/216/4 136/217/4 135/50/4
f 143/160/4 138/218/4 139/210/4 141/161/4
f 141/161/4 139/210/4 140/219/4 142/134/4
f 133/213/4 134/212/4 138/218/4 143/160/4
f 142/134/4 140/219/4 137/216/4 144/49/4
f 135/50/12 136/217/12 148/220/12 147/221/12
f 59/140/1 53/139/1 133/213/1 143/160/1
f 62/119/2 8/155/2 136/222/2 137/223/2
f 130/207/5 129/13/5 147/16/5 148/224/5
f 58/133/1 55/141/1 141/161/1 142/134/1
f 16/56/2 32/55/2 140/225/2 139/210/2
f 111/126/3 112/17/3 146/19/3 145/127/3
f 7/7/2 45/6/2 138/211/2 134/18/2
f 32/55/2 62/119/2 137/223/2 140/225/2
f 8/155/2 130/209/2 148/226/2 136/222/2
f 157/172/6 159/171/6 158/170/6 154/227/6
f 152/228/6 153/181/6 156/180/6 149/229/6
f 154/227/6 158/170/6 155/169/6 151/230/6
f 149/229/13 156/180/13 160/231/13 150/232/13
f 151/230/6 155/169/6 153/181/6 152/228/6
f 2/2/1 41/1/1 149/233/1 150/234/1
f 75/158/2 83/111/2 158/170/2 159/171/2
f 81/93/2 76/96/2 160/231/2 156/180/2
f 76/97/14 2/235/14 150/236/14 160/237/14
f 80/89/2 73/92/2 153/181/2 155/169/2
f 34/58/1 66/117/1 154/182/1 151/164/1
f 41/1/1 13/59/1 152/165/1 149/233/1
f 161/238/5 163/239/5 164/166/5 162/240/5
f 78/185/2 169/241/2 186/242/2 182/243/2
f 2/235/6 76/97/6 163/239/6 161/238/6
f 76/97/2 77/100/2 164/166/2 163/239/2
f 168/244/3 165/245/3 166/246/3 169/241/3
f 165/245/5 168/244/5 170/247/5 167/248/5
f 1/21/1 4/156/1 166/249/1 165/22/1
f 75/158/2 159/171/2 170/174/2 168/250/2
f 169/241/15 166/246/15 185/251/15 186/242/15
f 78/185/2 75/184/2 168/244/2 169/241/2
f 176/252/4 177/163/4 180/162/4 171/253/4
f 178/254/4 181/255/4 179/256/4 173/257/4
f 174/258/4 175/183/4 177/163/4 176/252/4
f 171/253/4 180/162/4 182/175/4 172/259/4
f 173/257/4 179/256/4 175/183/4 174/258/4
f 181/255/4 178/254/4 183/260/4 184/261/4
f 172/259/6 182/175/6 186/262/6 185/263/6
f 31/61/1 14/60/1 174/264/1 176/265/1
f 4/156/1 61/118/1 171/266/1 172/259/1
f 44/4/1 3/3/1 178/178/1 173/267/1
f 61/118/1 31/61/1 176/265/1 171/266/1
f 77/129/2 82/85/2 179/256/2 181/255/2
f 162/240/16 164/166/16 184/168/16 183/268/16
f 14/60/1 44/4/1 173/267/1 174/264/1
f 166/249/1 4/156/1 172/259/1 185/263/1
f 82/85/2 74/88/2 175/183/2 179/256/2
f 187/269/4 188/270/4 190/271/4 189/272/4
f 189/273/17 190/274/17 194/275/17 193/276/17
f 193/276/6 194/275/6 192/277/6 191/278/6
f 191/278/18 192/277/18 188/279/18 187/269/18
f 189/273/19 193/276/19 191/278/19 187/269/19
f 194/275/20 190/274/20 188/279/20 192/277/20
f 195/280/21 196/281/21 198/282/21 197/283/21
f 197/283/3 198/282/3 202/284/3 201/285/3
f 201/285/22 202/284/22 200/286/22 199/287/22
f 199/287/5 200/286/5 196/281/5 195/280/5
f 197/283/23 201/285/23 199/287/23 195/280/23
f 202/284/24 198/282/24 196/281/24 200/286/24
f 203/288/25 204/289/25 206/290/25 205/291/25
f 205/291/3 206/290/3 210/292/3 209/293/3
f 209/293/26 210/292/26 208/294/26 207/295/26
f 207/295/5 208/294/5 204/289/5 203/288/5
f 205/291/27 209/293/27 207/295/27 203/288/27
f 210/292/28 206/290/28 204/289/28 208/294/28
f 211/296/29 212/297/29 214/298/29 213/299/29
f 213/299/30 214/298/30 218/300/30 217/301/30
f 217/301/31 218/300/31 216/302/31 215/303/31
f 215/303/32 216/302/32 212/297/32 211/296/32
f 213/299/33 217/301/33 215/303/33 211/296/33
f 218/300/34 214/298/34 212/297/34 216/302/34
f 219/304/6 220/305/6 222/306/6 221/307/6
f 221/307/5 222/306/5 226/308/5 225/309/5
f 225/309/4 226/308/4 224/310/4 223/311/4
f 223/311/3 224/310/3 220/305/3 219/304/3
f 221/307/1 225/309/1 223/311/1 219/304/1
f 226/308/2 222/306/2 220/305/2 224/310/2
f 227/312/6 228/313/6 230/314/6 229/315/6
f 229/315/5 230/314/5 234/316/5 233/317/5
f 233/317/4 234/316/4 232/318/4 231/319/4
f 231/319/3 232/318/3 228/313/3 227/312/3
f 229/315/1 233/317/1 231/319/1 227/312/1
f 234/316/2 230/314/2 228/313/2 232/318/2
f 235/320/6 236/321/6 238/322/6 237/323/6
f 237/323/5 238/322/5 242/324/5 241/325/5
f 241/325/4 242/324/4 240/326/4 239/327/4
f 239/327/3 240/326/3 236/321/3 235/320/3
f 237/323/1 241/325/1 239/327/1 235/320/1
f 242/324/2 238/322/2 236/321/2 240/326/2
f 243/328/6 244/329/6 246/330/6 245/331/6
f 245/331/5 246/330/5 250/332/5 249/333/5
f 249/333/4 250/332/4 248/334/4 247/335/4
f 247/335/3 248/334/3 244/329/3 243/328/3
f 245/331/1 249/333/1 247/335/1 243/328/1
f 250/332/2 246/330/2 244/329/2 248/334/2
